<?xml version="1.0" encoding="UTF-8"?>
<svg width="100" height="100" version="1.1" viewBox="0 0 100 100" xmlns="http://www.w3.org/2000/svg">
  <path d="m2.94e-4 52.1h100v47.9h-100z" fill="#1a1a1a"/>
  <path d="m-6.39e-8 -2.59e-7h100v47.9h-100z" fill="#b00"/>
  <path d="m49.9 14.7c-1.67 0-2.89 0.356-3.64 1.07-0.759 0.71-1.14 1.84-1.14 3.38v0.992l-2.04 0.994v1.78h2.04v10.8h3.69v-10.8h3.2v-2.77h-3.2v-0.846c0-0.484 0.118-0.881 0.352-1.19 0.234-0.315 0.612-0.473 1.14-0.473 0.629 0 1.32 0.118 2.06 0.352l0.945-2.71c-0.993-0.379-2.13-0.57-3.4-0.57zm-12.9 0.135v4.33c0 0.791 0.0937 1.69 0.279 2.7h-0.121c-0.896-1.32-2.2-1.99-3.9-1.99-1.62 0-2.9 0.622-3.83 1.87-0.92 1.23-1.38 2.96-1.38 5.18 0 2.19 0.452 3.9 1.36 5.13 0.912 1.23 2.16 1.85 3.75 1.85 1.72 1e-6 3-0.666 3.84-2h0.158l0.713 1.76h2.83v-18.8h-3.71zm-16.3 5.05c-1.69 0-2.97 0.67-3.84 2.01h-0.17l-0.52-1.76h-3v19.5h3.69v-5.48c0-0.178-0.0642-0.833-0.193-1.96h0.193c0.904 1.15 2.15 1.73 3.74 1.73 1.06 1e-6 1.98-0.279 2.76-0.836s1.39-1.37 1.8-2.43c0.428-1.07 0.641-2.32 0.641-3.76 0-2.2-0.452-3.91-1.36-5.14-0.904-1.23-2.15-1.85-3.75-1.85zm-1.19 2.96c0.872 0 1.51 0.334 1.91 1 0.412 0.662 0.617 1.66 0.617 2.99 0 2.73-0.828 4.09-2.48 4.09-0.936 0-1.62-0.316-2.06-0.945-0.428-0.629-0.643-1.67-0.643-3.12v-0.398c0.0161-1.29 0.235-2.22 0.654-2.77 0.42-0.565 1.08-0.846 2-0.846zm14.9 0.0469c1.01 0 1.73 0.316 2.18 0.945 0.452 0.629 0.678 1.67 0.678 3.12v0.398c-0.0404 1.32-0.283 2.25-0.727 2.8-0.436 0.549-1.12 0.824-2.07 0.824-0.855 0-1.51-0.332-1.97-0.994-0.46-0.67-0.689-1.67-0.689-3 0-1.33 0.226-2.34 0.678-3.04 0.46-0.702 1.1-1.05 1.93-1.05zm22.4 0.988-0.51 1.71-1.14 0.502v0.584h1.14v4.75c0 1.63 0.772 2.44 2.32 2.44 0.204 0 0.433-0.0207 0.686-0.0645 0.258-0.0389 0.453-0.0911 0.584-0.154v-0.926c-0.117 0.034-0.275 0.0675-0.475 0.102-0.199 0.0292-0.405 0.0449-0.619 0.0449-0.399 0-0.713-0.129-0.941-0.387-0.229-0.258-0.342-0.628-0.342-1.11v-4.7h2.32v-0.941h-2.32v-1.85h-0.701zm7.92 1.71c-1.16 0-2.06 0.364-2.71 1.09-0.651 0.724-0.977 1.74-0.977 3.04 0 0.841 0.15 1.57 0.451 2.2 0.301 0.627 0.731 1.11 1.29 1.45s1.19 0.502 1.9 0.502c1.16 0 2.06-0.364 2.72-1.09 0.656-0.734 0.984-1.75 0.984-3.05 0-1.27-0.331-2.28-0.992-3.02-0.656-0.744-1.54-1.12-2.66-1.12zm-0.0352 1.03c0.802 0 1.41 0.265 1.81 0.795 0.413 0.525 0.621 1.3 0.621 2.31 0 1.03-0.208 1.81-0.621 2.34-0.408 0.53-1.01 0.795-1.8 0.795-0.792 0-1.39-0.266-1.8-0.801-0.408-0.535-0.613-1.31-0.613-2.33 0-1.03 0.202-1.81 0.605-2.33 0.404-0.52 1-0.781 1.79-0.781zm-46.1 42.8c-1.71 0-3.03 0.33-3.97 0.992-0.928 0.654-1.39 1.58-1.39 2.79 0 0.702 0.108 1.3 0.326 1.78 0.226 0.476 0.58 0.898 1.06 1.27 0.492 0.371 1.26 0.775 2.3 1.21 0.726 0.307 1.31 0.578 1.74 0.812 0.436 0.226 0.742 0.432 0.92 0.617 0.178 0.178 0.266 0.411 0.266 0.701 0 0.775-0.67 1.16-2.01 1.16-0.654 0-1.41-0.108-2.28-0.326-0.855-0.218-1.63-0.49-2.31-0.812v3.05c0.605 0.258 1.26 0.453 1.95 0.582 0.694 0.137 1.53 0.205 2.52 0.205 1.92 0 3.36-0.364 4.32-1.09 0.968-0.726 1.45-1.78 1.45-3.17 0-0.67-0.118-1.25-0.352-1.73-0.234-0.484-0.598-0.912-1.09-1.28-0.492-0.371-1.27-0.77-2.32-1.2-1.19-0.476-1.96-0.836-2.31-1.08-0.347-0.242-0.52-0.528-0.52-0.859 0-0.589 0.543-0.883 1.63-0.883 0.613 0 1.22 0.0917 1.8 0.277s1.22 0.424 1.9 0.715l1.11-2.66c-1.54-0.71-3.13-1.06-4.76-1.06zm26.6 0c-1.78 0-3.15 0.404-4.12 1.21-0.96 0.807-1.44 1.95-1.44 3.43 0 0.92 0.206 1.72 0.617 2.4 0.42 0.678 0.983 1.17 1.69 1.48-0.565 0.331-0.996 0.671-1.29 1.02-0.299 0.339-0.447 0.767-0.447 1.28 0 0.412 0.141 0.803 0.424 1.17 0.282 0.363 0.613 0.626 0.992 0.787-0.985 0.234-1.73 0.625-2.24 1.17-0.508 0.549-0.762 1.23-0.762 2.04 0 1.19 0.496 2.11 1.49 2.76 1 0.662 2.45 0.992 4.33 0.992 2.47 0 4.36-0.437 5.68-1.31 1.32-0.872 1.99-2.1 1.99-3.68 0-1.23-0.393-2.17-1.18-2.81-0.775-0.638-1.9-0.955-3.39-0.955h-2.3c-1.36-1e-6 -2.03-0.268-2.03-0.801 0-0.355 0.189-0.676 0.568-0.967l0.545 0.0605 0.666 0.0352c1.8 0 3.2-0.404 4.21-1.21 1.02-0.815 1.53-1.95 1.53-3.4 0-0.751-0.195-1.43-0.582-2.03l2.12-0.545v-1.88h-4.72c-0.145-0.0323-0.481-0.08-1.01-0.145-0.517-0.0726-0.964-0.109-1.34-0.109zm-20.7 0.254 5.16 13.5h3.79l5.16-13.5h-3.86l-2.6 7.71c-0.323 1.07-0.505 2-0.545 2.77h-0.0723c-0.0726-0.872-0.254-1.79-0.545-2.77l-2.62-7.71h-3.86zm20.7 1.98c1.34 0 2.01 0.815 2.01 2.45 0 0.734-0.162 1.32-0.484 1.74s-0.831 0.641-1.53 0.641c-0.686 0-1.2-0.213-1.54-0.641-0.331-0.428-0.496-1.01-0.496-1.74 0-1.63 0.677-2.45 2.03-2.45zm31.7 1.75-0.512 1.71-1.14 0.504v0.582h1.14v4.76c0 1.63 0.774 2.44 2.32 2.44 0.204 0 0.433-0.0227 0.686-0.0664 0.258-0.0389 0.451-0.0891 0.582-0.152v-0.926c-0.117 0.034-0.273 0.0675-0.473 0.102-0.199 0.0292-0.407 0.043-0.621 0.043-0.399 0-0.711-0.129-0.939-0.387-0.229-0.258-0.344-0.626-0.344-1.11v-4.71h2.32v-0.939h-2.32v-1.85h-0.699zm-13.8 1.71c-0.549 0-1.05 0.109-1.49 0.328-0.447 0.214-0.795 0.518-1.04 0.912h-0.0586l-0.197-1.09h-0.984v7.99h1.21v-4.19c0-1.04 0.195-1.79 0.584-2.24 0.389-0.452 1-0.678 1.84-0.678 0.632 0 1.1 0.16 1.39 0.48s0.443 0.808 0.443 1.46v5.17h1.21v-5.21c0-1.02-0.242-1.76-0.729-2.22-0.486-0.467-1.21-0.701-2.17-0.701zm7.92 0c-1.07 0-1.92 0.38-2.56 1.14-0.632 0.758-0.947 1.78-0.947 3.07 0 1.28 0.339 2.28 1.02 3 0.686 0.72 1.62 1.08 2.8 1.08 0.54 0 1-0.0424 1.38-0.125 0.384-0.0778 0.789-0.208 1.22-0.393v-1.08c-0.841 0.36-1.69 0.539-2.55 0.539-0.817 0-1.45-0.242-1.9-0.729-0.447-0.486-0.683-1.2-0.707-2.14h5.51v-0.766c0-1.08-0.292-1.95-0.875-2.6-0.583-0.661-1.38-0.992-2.38-0.992zm-0.0156 1.01c0.632 0 1.12 0.205 1.46 0.613 0.34 0.404 0.51 0.987 0.51 1.75h-4.18c0.0681-0.739 0.291-1.32 0.67-1.74 0.384-0.418 0.897-0.627 1.54-0.627zm-14.4 5.36c-0.277 0-0.49 0.0837-0.641 0.254-0.146 0.165-0.219 0.411-0.219 0.736 0 0.35 0.0798 0.604 0.24 0.76 0.165 0.151 0.371 0.225 0.619 0.225 0.277 0 0.496-0.0837 0.656-0.254s0.242-0.414 0.242-0.73c0-0.326-0.0817-0.571-0.242-0.736-0.156-0.17-0.374-0.254-0.656-0.254zm-12.3 1.89h1.91c0.928 0 1.61 0.0973 2.06 0.291 0.444 0.194 0.666 0.544 0.666 1.05 0 0.629-0.374 1.13-1.12 1.49-0.751 0.363-1.79 0.545-3.11 0.545-0.88 0-1.57-0.145-2.06-0.436-0.484-0.291-0.727-0.689-0.727-1.2 0-0.525 0.226-0.949 0.678-1.27 0.46-0.315 1.03-0.473 1.71-0.473z" fill="#fff"/>
</svg>
